<svg width="154" height="154" viewBox="0 0 154 154" fill="none" xmlns="http://www.w3.org/2000/svg">
<g id="Car--Streamline-Fun-Stickers">
<path id="Vector" d="M41.6814 74.9221C41.6814 74.9221 45.6229 74.5347 46.9367 74.4581C50.3392 74.1488 53.7402 74.0707 57.1412 74.0707C61.3154 74.0707 65.335 73.2209 69.5108 72.9115C76.0035 72.4476 82.5742 73.6848 88.9903 73.0647C91.3101 72.835 93.0099 72.9881 95.3298 72.6022C97.5715 72.2163 99.4275 71.907 99.4275 71.5977C99.1181 62.165 94.8658 49.875 86.3626 45.6226C82.7288 43.7682 77.3173 43.1496 73.2211 43.1496C70.2045 43.1496 67.1909 43.3027 64.3305 44.0776C55.5946 46.474 47.0914 53.354 44.2309 61.8557C43.1499 65.1817 41.3705 68.428 40.5987 71.6743C40.2894 72.9115 40.0567 73.9161 41.6798 74.9206L41.6814 74.9221Z" fill="white"/>
<path id="Vector_2" fill-rule="evenodd" clip-rule="evenodd" d="M29.1279 113.57C30.4372 113.334 31.6484 113.115 32.6346 113.033L32.8137 113.03C33.3941 107.073 38.2773 100.351 43.303 98.6541C46.2415 97.6496 48.4833 97.9573 51.1891 98.3448C55.3634 98.3448 59.3049 104.452 59.5376 107.776C59.6243 109.339 59.5766 110.907 59.3952 112.462L92.1524 111.76C91.9453 110.267 92.0798 108.746 92.5459 107.312C93.9394 102.906 98.2668 99.3493 102.828 98.9634C106.848 98.5775 110.172 98.9634 112.414 99.9679C116.464 101.755 117.884 106.502 117.467 111.218L119.371 111.177C124.087 111.177 128.571 111.1 133.286 110.405C133.466 110.379 133.926 110.422 134.472 110.474C135.56 110.577 136.997 110.713 137.305 110.405C138.296 109.359 138.386 107.182 138.466 105.232C138.5 104.439 138.53 103.686 138.619 103.061C139.161 99.5039 139.392 95.7171 139.392 92.0818C139.392 89.6884 130.594 83.0519 123.807 77.9328C120.515 75.4521 117.699 73.3267 116.589 72.2165C115.985 71.6132 115.578 69.7711 115.253 68.3072C115.149 67.8022 115.027 67.3011 114.887 66.805C114.29 64.6612 113.371 62.5833 112.462 60.5267C111.957 59.4094 111.477 58.2811 111.022 57.1426C106.153 44.1543 93.0099 31.0129 74.6896 31.3987C54.6666 31.8627 40.1348 40.9845 30.9349 59.461C29.4648 62.5542 28.4618 66.4957 28.0744 69.8966C28.053 70.157 28.0622 70.5995 28.0714 71.114C28.0974 72.437 28.1326 74.2439 27.6885 74.6896C27.4236 74.9545 27.0898 75.2822 26.7024 75.6619C22.6813 79.6034 12.8642 89.229 13.8504 94.0924C13.8841 94.2761 13.9315 94.561 13.9943 94.9254C14.6681 98.8485 16.9589 112.217 18.7979 113.419C21.1806 115.008 25.5203 114.223 29.1279 113.572V113.57ZM46.9367 74.4583C45.6229 74.5349 41.6798 74.9223 41.6798 74.9223C40.0567 73.9163 40.2894 72.9117 40.5988 71.676C41.0459 69.7925 41.833 67.909 42.6246 66.0103C43.1989 64.6367 43.7777 63.254 44.2325 61.8574C47.0914 53.3542 55.5946 46.4742 64.3305 44.0777C67.191 43.3044 70.2061 43.1498 73.2211 43.1498C77.3173 43.1498 82.7304 43.7684 86.3626 45.6228C94.8658 49.8752 99.1181 62.1667 99.4275 71.5979C99.4275 71.8965 97.691 72.1951 95.5472 72.5657L95.3298 72.6024C93.9669 72.829 92.8185 72.8704 91.6317 72.9117C90.7987 72.9408 89.9473 72.9699 88.9903 73.0649C85.646 73.388 82.2603 73.2073 78.8639 73.0251C75.7462 72.8566 72.6194 72.6882 69.5109 72.9117C67.8739 73.0342 66.2615 73.2364 64.6536 73.4416C62.1607 73.757 59.68 74.0709 57.1412 74.0709C53.7402 74.0709 50.3392 74.1475 46.9367 74.4583Z" fill="white"/>
<path id="Vector_3" d="M29.1279 113.57C30.4372 113.334 31.6484 113.115 32.6346 113.033L32.8137 113.03C33.3941 107.073 38.2773 100.351 43.303 98.6541C46.2415 97.6496 48.4833 97.9573 51.1891 98.3448C55.3634 98.3448 59.3049 104.452 59.5376 107.776C59.6243 109.339 59.5766 110.907 59.3952 112.462L92.1524 111.76C91.9453 110.267 92.0798 108.746 92.5459 107.312C93.9394 102.906 98.2668 99.3493 102.828 98.9634C106.848 98.5775 110.172 98.9634 112.414 99.9679C116.464 101.755 117.884 106.502 117.467 111.218L119.371 111.177C124.087 111.177 128.571 111.1 133.286 110.405C133.466 110.379 133.926 110.422 134.472 110.474C135.56 110.577 136.997 110.713 137.305 110.405C138.296 109.359 138.386 107.182 138.466 105.232C138.5 104.439 138.53 103.686 138.619 103.061C139.161 99.5039 139.392 95.7171 139.392 92.0818C139.392 89.6884 130.594 83.0519 123.807 77.9328C120.515 75.4521 117.699 73.3267 116.589 72.2165C115.985 71.6132 115.578 69.7711 115.253 68.3072C115.149 67.8022 115.027 67.3011 114.887 66.805C114.29 64.6612 113.371 62.5833 112.462 60.5267C111.957 59.4094 111.477 58.2811 111.022 57.1426C106.153 44.1543 93.0099 31.0129 74.6896 31.3987C54.6666 31.8627 40.1348 40.9845 30.9349 59.461C29.4648 62.5542 28.4618 66.4957 28.0744 69.8966C28.053 70.157 28.0622 70.5995 28.0714 71.114C28.0974 72.437 28.1326 74.2439 27.6885 74.6896C27.4236 74.9545 27.0898 75.2822 26.7024 75.6619C22.6813 79.6034 12.8642 89.229 13.8504 94.0924C13.8841 94.2761 13.9315 94.5594 13.9943 94.9224V94.9254C14.6681 98.8485 16.9589 112.217 18.7979 113.419C21.1806 115.008 25.5203 114.223 29.1279 113.572V113.57Z" stroke="#292524" stroke-width="0.612512" stroke-miterlimit="2.854" stroke-linecap="round" stroke-linejoin="round"/>
<path id="Vector_4" d="M71.0559 44.2308C71.1325 42.995 71.0559 46.396 71.0559 46.4726V52.8121C71.0559 59.3828 71.2887 65.9535 71.2887 72.5242" stroke="#292524" stroke-width="0.612512" stroke-miterlimit="2.854" stroke-linecap="round" stroke-linejoin="round"/>
<path id="Vector_5" d="M51.1891 98.3448C48.4833 97.9574 46.2415 97.6496 43.303 98.6541C36.8869 100.818 30.7036 111.177 33.4079 117.671C35.5731 122.928 41.5252 125.557 46.8602 125.787C56.6772 126.174 60.0016 116.124 59.5376 107.776C59.3064 104.453 55.3634 98.3433 51.1891 98.3433V98.3448Z" fill="#292524"/>
<path id="Vector_6" d="M102.828 98.9633C98.2668 99.3492 93.9378 102.906 92.5459 107.312C89.9963 115.351 97.8809 122.076 105.07 122.928C107.234 123.159 110.094 123.237 112.027 122C118.212 118.135 120.299 103.447 112.414 99.9679C110.172 98.9633 106.848 98.5759 102.828 98.9633Z" fill="#292524"/>
<path id="Vector_7" d="M51.1891 98.3448C48.4833 97.9574 46.2415 97.6496 43.303 98.6541C36.8869 100.818 30.7036 111.177 33.4079 117.671C35.5731 122.928 41.5252 125.557 46.8602 125.787C56.6772 126.174 60.0016 116.124 59.5376 107.776C59.3064 104.453 55.3634 98.3433 51.1891 98.3433V98.3448Z" stroke="#292524" stroke-width="0.612512" stroke-miterlimit="2.854" stroke-linecap="round" stroke-linejoin="round"/>
<path id="Vector_8" d="M102.828 98.9633C98.2668 99.3492 93.9378 102.906 92.5459 107.312C89.9963 115.351 97.8809 122.076 105.07 122.928C107.234 123.159 110.094 123.237 112.027 122C118.212 118.135 120.299 103.447 112.414 99.9679C110.172 98.9633 106.848 98.5759 102.828 98.9633Z" stroke="#292524" stroke-width="0.612512" stroke-miterlimit="2.854" stroke-linecap="round" stroke-linejoin="round"/>
<path id="Vector_9" d="M41.6814 74.9221C41.6814 74.9221 45.6229 74.5347 46.9367 74.4581C50.3392 74.1488 53.7402 74.0707 57.1412 74.0707C61.3154 74.0707 65.335 73.2209 69.5108 72.9115C76.0035 72.4476 82.5742 73.6848 88.9903 73.0647C91.3101 72.835 93.0099 72.9881 95.3297 72.6022C97.5715 72.2163 99.4275 71.907 99.4275 71.5977C99.1181 62.165 94.8658 49.875 86.3626 45.6226C82.7288 43.7682 77.3173 43.1496 73.2211 43.1496C70.2045 43.1496 67.1909 43.3027 64.3305 44.0776C55.5946 46.474 47.0914 53.354 44.2309 61.8557C43.1499 65.1816 41.3705 68.428 40.5987 71.6743C40.2894 72.9115 40.0567 73.9161 41.6798 74.9206L41.6814 74.9221Z" stroke="#292524" stroke-width="0.612512" stroke-miterlimit="2.854" stroke-linecap="round" stroke-linejoin="round"/>
</g>
</svg>
