<svg width="154" height="154" viewBox="0 0 154 154" fill="none" xmlns="http://www.w3.org/2000/svg">
<g id="Work--Streamline-Fun-Stickers">
<path id="Vector" d="M14.7139 41.1914C14.1229 41.5232 11.2328 48.2221 11.4053 48.6069C11.6146 49.0775 13.7023 49.4251 14.0933 49.5339C16.261 50.1428 18.4635 50.8385 20.5731 51.6976C21.082 51.9043 22.648 53.0068 23.1931 52.7016C23.7179 52.4081 24.0772 50.6461 24.2962 50.0749C24.4912 49.5655 25.0394 47.8954 24.9368 47.8137C23.9751 47.0961 22.5597 46.0813 21.642 45.2922C19.979 43.8594 18.3242 42.8728 16.4034 41.9152C16.237 41.8346 14.8701 41.1031 14.7139 41.1914Z" fill="#1E9A64"/>
<path id="Vector_2" d="M140.87 46.8705C141.461 47.2022 144.35 53.9006 144.178 54.2859C143.968 54.756 141.881 55.1042 141.49 55.2129C139.322 55.8213 137.119 56.517 135.009 57.3761C134.501 57.5833 132.935 58.6858 132.39 58.3806C131.865 58.0866 131.505 56.3251 131.287 55.7534C131.092 55.244 130.544 53.5744 130.647 53.4927C131.608 52.7746 133.023 51.7598 133.942 50.9712C135.604 49.538 137.259 48.5513 139.18 47.5937C139.346 47.5131 140.713 46.7827 140.87 46.8705Z" fill="#1E9A64"/>
<path id="Vector_3" d="M6.22414 57.7604C6.02252 57.7859 5.51005 62.0832 5.49423 62.3057C5.43808 63.1214 4.83731 66.5418 5.80763 67.0803C6.57327 67.5065 8.30515 66.9542 9.10499 66.873C11.9088 66.5898 14.7437 66.5959 17.5673 66.5959C19.1129 66.5821 20.6554 66.7444 22.1714 67.0803C22.4521 67.1436 24.453 67.7933 24.4734 67.7035C24.7235 66.5908 24.7623 65.3152 24.9088 64.1744C24.9782 63.6369 25.2687 62.8978 25.0339 62.3752C24.4821 61.1481 22.788 60.7576 21.736 60.3682C18.7219 59.2544 7.9111 57.5552 6.22414 57.7604Z" fill="#FBC604"/>
<path id="Vector_4" d="M146.653 63.3639C146.846 63.4369 146.612 67.751 146.589 67.9705C146.505 68.7785 146.508 72.2581 145.463 72.5495C144.636 72.7807 143.028 71.8257 142.255 71.5506C139.545 70.6002 136.757 69.9244 133.981 69.246C132.472 68.862 130.925 68.6488 129.369 68.6106C129.082 68.6044 127.002 68.7571 126.998 68.6647C126.943 67.5193 127.124 66.2672 127.176 65.1192C127.201 64.5792 127.041 63.7886 127.363 63.3353C128.116 62.2767 129.849 62.2991 130.951 62.172C134.105 61.8127 145.029 62.7549 146.653 63.3639Z" fill="#FBC604"/>
<path id="Vector_5" d="M13.7921 82.7896C17.5055 81.6718 24.973 75.513 24.973 75.2486C24.973 74.7963 24.2043 72.1937 24.0165 71.9599C23.6444 71.4975 20.3098 72.2713 19.6304 72.4224C16.8292 73.0451 12.0643 75.1945 10.4611 76.3873C10.0308 76.7059 13.0786 83.0045 13.7921 82.7896Z" fill="#1E9A64"/>
<path id="Vector_6" d="M141.555 85.6277C138.316 84.665 131.804 79.3627 131.804 79.1345C131.804 78.7451 132.474 76.5043 132.638 76.3037C132.963 75.9051 135.871 76.5712 136.465 76.7018C138.909 77.2383 143.066 79.0876 144.465 80.1156C144.838 80.3897 142.178 85.813 141.555 85.6277Z" fill="#1E9A64"/>
<path id="Vector_7" d="M27.9968 53.8245C27.9004 54.6432 29.0478 61.7178 29.2055 64.0203C29.5659 69.2557 30.4132 74.4406 30.4132 79.7016C30.4132 80.2233 30.3147 85.2204 30.4765 85.4179C30.6209 85.5919 33.2165 85.5725 33.5921 85.5725C34.7283 85.5725 36.4046 85.8334 37.3417 85.2632C37.9246 84.909 38.1166 82.9831 38.2947 82.4048C38.7827 80.8251 39.4957 79.3111 39.8811 77.6931C40.1578 76.539 40.5299 74.2809 41.2154 73.4443C41.3598 73.2702 42.2658 75.6886 42.3597 75.9163C42.9814 77.4261 43.8017 78.8451 44.331 80.3973C44.7547 81.6326 44.991 83.0822 45.4754 84.2587C45.6453 84.6737 51.0717 84.0351 51.1973 83.8841C51.3999 83.637 52.3233 79.107 52.7913 77.2955C53.5182 74.4845 54.1312 69.7412 54.9463 65.9405C56.0621 60.7434 58.3606 52.1151 58.2207 51.9477C58.0528 51.7435 53.2007 52.0972 52.9133 52.0477C52.6254 51.9982 49.0387 51.5802 48.7809 51.8931C48.3751 52.3861 48.4098 54.0027 48.3363 54.5963C48.0091 57.2459 47.7376 59.9006 47.4456 62.5528C47.3742 63.198 47.3216 67.1073 47.001 67.4968C46.9398 67.5718 46.6739 66.9001 46.6198 66.8011C46.3569 66.3238 46.0644 65.8823 45.7929 65.4102C44.9496 63.9468 43.8349 62.4875 43.1254 60.9302C42.8661 60.3626 42.1025 58.4459 42.0346 58.425C41.8713 58.3745 40.4824 58.4582 39.6295 58.4582C39.4748 58.4582 38.7985 58.3857 38.676 58.5352C38.4238 58.8415 38.3529 60.5285 38.2947 60.9302C37.3417 64.0203 35.616 67.484 35.3087 67.1099C34.7932 66.4831 34.9274 64.2403 34.9274 63.4787C34.9274 60.7571 34.7054 58.0718 34.4828 55.3686C34.4471 54.9337 34.6324 53.0793 34.3557 52.7419C34.0673 52.3938 32.7545 52.6546 32.3845 52.7419C30.9389 53.0941 28.1025 52.9063 27.9968 53.8245Z" fill="#FB8CAC"/>
<path id="Vector_8" fill-rule="evenodd" clip-rule="evenodd" d="M62.4287 56.3895C63.8916 54.2043 66.0165 51.2142 72.2177 51.7558C74.5039 51.9554 75.2507 54.9444 75.6289 56.4604C75.6845 56.6814 75.7315 56.8713 75.7749 57.0168C76.0918 58.081 76.2052 59.1325 76.322 60.2125C76.3715 60.673 76.4221 61.139 76.4889 61.6126C77.7548 70.6013 74.2349 86.2754 63.4726 83.7631C56.4532 82.1246 58.0411 71.8972 58.9277 66.1881L58.9481 66.059C58.9859 65.814 59.0227 65.5654 59.0599 65.3148C59.2809 63.8284 59.5137 62.2629 60.0619 60.9113C60.6596 59.4398 61.5631 57.6819 62.4287 56.3895ZM68.3451 58.6517C69.1066 56.8315 70.7757 56.4099 71.4061 57.0117C72.2294 57.7987 71.89 59.8757 71.669 61.2268C71.6128 61.5698 71.5644 61.8663 71.5444 62.0827L71.499 62.6013C71.255 65.3816 70.9901 68.3998 70.2934 71.052C70.2709 71.1367 70.2418 71.2587 70.2061 71.4082C69.8993 72.6869 69.1072 75.9883 67.997 75.5733C66.5765 75.0455 66.1349 72.4745 65.9782 71.052C65.5163 66.9119 66.7985 62.3446 68.3451 58.6517Z" fill="#1E9A64"/>
<path id="Vector_9" fill-rule="evenodd" clip-rule="evenodd" d="M78.1279 81.6259C77.9288 82.5968 77.5756 84.3159 78.0712 84.5828C77.9038 84.5828 82.5216 85.7359 82.7089 84.7334C83.078 82.8014 83.6624 78.8911 84.1152 75.8591C84.4648 73.5204 84.7359 71.7048 84.7701 71.7237C84.8635 71.7757 85.478 73.235 86.2023 74.9547C86.9715 76.781 87.8643 78.9008 88.3874 79.9405C88.6268 80.4162 88.8672 80.9394 89.1153 81.4774C89.8192 83.0061 90.5807 84.6589 91.5199 85.7119C91.6526 85.8584 92.2386 85.5139 92.5403 85.3362C92.6173 85.2908 92.6761 85.2561 92.7036 85.2438C93.5591 84.8605 94.2931 84.3271 95.0414 83.783C95.3032 83.5906 95.5677 83.4018 95.8346 83.2164C96.1796 82.9796 96.6625 82.778 97.1596 82.5702C97.8824 82.2681 98.6358 81.9536 99.0406 81.4999C99.0722 81.4636 98.6542 80.995 98.3959 80.7051C98.3306 80.6336 98.2668 80.5608 98.2045 80.4867C98.121 80.3737 98.0385 80.26 97.9569 80.1457C97.6175 79.673 97.2995 79.23 96.8131 78.8487C94.4957 77.0306 88.6651 70.3082 88.8815 69.8239C89.5849 68.2492 92.9068 69.4997 95.8346 68.4799C100.084 66.9997 103.14 60.9302 101.268 55.6861L101.238 55.6023C100.963 54.8336 100.655 53.9741 100.084 53.4254C97.5144 50.96 93.7827 50.1484 90.6767 50.4384C88.8514 50.6088 78.2172 52.9976 77.8803 54.1277C77.6966 54.7448 77.9742 55.414 78.2289 56.0286C78.3382 56.2914 78.4428 56.5446 78.5056 56.7789C79.6627 61.091 79.4535 65.6297 79.3417 70.0377C79.2437 73.795 78.8011 77.4175 78.2274 81.113C78.2095 81.2304 78.1728 81.4095 78.1279 81.6259ZM85.2054 57.3306C85.4847 57.2189 85.7848 57.0994 86.0921 56.9728C87.0374 56.5849 91.7185 55.1174 92.7776 56.6278C93.6668 57.8911 92.1723 59.2039 91.7614 59.3234C91.3699 59.4362 90.9835 59.5382 90.6022 59.6388C89.297 59.9838 88.0592 60.3105 86.9419 60.9935C86.3539 61.3538 85.0528 61.9015 84.2836 61.6147C83.7441 61.4125 83.5695 58.5669 83.5695 58.1172C83.5695 57.983 84.2749 57.7017 85.2054 57.3306Z" fill="#FB8CAC"/>
<path id="Vector_10" d="M104.029 51.7981C103.486 51.5669 104.253 55.9551 104.313 56.7176C104.62 60.4116 104.78 64.1888 104.806 67.8944C104.838 72.6343 101.555 85.1668 101.848 85.4506C102.107 85.7002 103.525 85.6333 103.8 85.5925C105.291 85.3679 109.037 85.1749 110.027 83.5671C110.21 83.2716 110.041 81.7714 110.055 81.3804C110.125 79.3331 110.273 77.198 110.173 75.1502C110.144 74.5336 110.112 73.9256 110.106 73.3126C110.106 73.3014 110.015 72.4868 110.015 72.4868C110.192 72.4597 121.813 84.3123 124.139 82.3758C124.785 81.8383 127.852 75.1022 127.764 75.0317C126.503 74.0242 125.43 73.7092 123.997 73.1626C121.114 72.0605 119.103 70.8815 116.493 69.0817C115.707 68.5391 114.616 67.994 114.123 67.0818C113.663 66.233 115.726 63.9922 116.015 63.5237C116.566 62.6299 124.784 52.4066 124.112 51.546C123.595 50.8835 119.607 48.6008 118.948 48.8213C117.755 49.2225 117.158 50.9233 115.274 53.1395C114.291 54.2962 113.294 55.6667 112.24 56.7049C111.635 57.297 110.849 57.5001 110.45 58.1484C110.432 58.178 110.438 56.3307 110.43 56.1363C110.414 55.6876 110.233 51.0009 110.121 50.8926C109.892 50.6721 106.569 51.5659 105.891 51.5266C105.484 51.5041 103.717 51.6215 103.966 51.7318" fill="#FB8CAC"/>
<path id="Vector_11" d="M14.7139 41.1914C14.1229 41.5232 11.2328 48.2221 11.4053 48.6069C11.6146 49.0775 13.7023 49.4251 14.0933 49.5339C16.261 50.1428 18.4635 50.8385 20.5731 51.6976C21.082 51.9043 22.648 53.0068 23.1931 52.7016C23.7179 52.4081 24.0772 50.6461 24.2962 50.0749C24.4912 49.5655 25.0394 47.8954 24.9368 47.8137C23.9751 47.0961 22.5597 46.0813 21.642 45.2922C19.979 43.8594 18.3242 42.8728 16.4034 41.9152C16.237 41.8346 14.8701 41.1031 14.7139 41.1914Z" stroke="#292524" stroke-width="0.612512" stroke-linecap="round" stroke-linejoin="round"/>
<path id="Vector_12" d="M140.87 46.8705C141.461 47.2022 144.35 53.9006 144.178 54.2859C143.968 54.756 141.881 55.1042 141.49 55.2129C139.322 55.8213 137.119 56.517 135.009 57.3761C134.501 57.5833 132.935 58.6858 132.39 58.3806C131.865 58.0866 131.505 56.3251 131.287 55.7534C131.092 55.244 130.544 53.5744 130.647 53.4927C131.608 52.7746 133.023 51.7598 133.942 50.9712C135.604 49.538 137.259 48.5513 139.18 47.5937C139.346 47.5131 140.713 46.7827 140.87 46.8705Z" stroke="#292524" stroke-width="0.612512" stroke-linecap="round" stroke-linejoin="round"/>
<path id="Vector_13" d="M6.22414 57.7604C6.02252 57.7859 5.51005 62.0832 5.49423 62.3057C5.43808 63.1214 4.83731 66.5418 5.80763 67.0803C6.57327 67.5065 8.30515 66.9542 9.10499 66.873C11.9088 66.5898 14.7437 66.5959 17.5673 66.5959C19.1129 66.5821 20.6554 66.7444 22.1714 67.0803C22.4521 67.1436 24.453 67.7933 24.4734 67.7035C24.7235 66.5908 24.7623 65.3152 24.9088 64.1744C24.9782 63.6369 25.2687 62.8978 25.0339 62.3752C24.4821 61.1481 22.788 60.7576 21.736 60.3682C18.7219 59.2544 7.9111 57.5552 6.22414 57.7604Z" stroke="#292524" stroke-width="0.612512" stroke-linecap="round" stroke-linejoin="round"/>
<path id="Vector_14" d="M146.653 63.3639C146.846 63.4369 146.612 67.751 146.589 67.9705C146.505 68.7785 146.508 72.2581 145.463 72.5495C144.636 72.7807 143.028 71.8257 142.255 71.5506C139.545 70.6002 136.757 69.9244 133.981 69.246C132.472 68.862 130.925 68.6488 129.369 68.6106C129.082 68.6044 127.002 68.7571 126.998 68.6647C126.943 67.5193 127.124 66.2672 127.176 65.1192C127.201 64.5792 127.041 63.7886 127.363 63.3353C128.116 62.2767 129.849 62.2991 130.951 62.172C134.105 61.8127 145.029 62.7549 146.653 63.3639Z" stroke="#292524" stroke-width="0.612512" stroke-linecap="round" stroke-linejoin="round"/>
<path id="Vector_15" d="M13.7921 82.7896C17.5055 81.6718 24.973 75.513 24.973 75.2486C24.973 74.7963 24.2043 72.1937 24.0165 71.9599C23.6444 71.4975 20.3098 72.2713 19.6304 72.4224C16.8292 73.0451 12.0643 75.1945 10.4611 76.3873C10.0308 76.7059 13.0786 83.0045 13.7921 82.7896Z" stroke="#292524" stroke-width="0.612512" stroke-linecap="round" stroke-linejoin="round"/>
<path id="Vector_16" d="M141.555 85.6277C138.316 84.665 131.804 79.3627 131.804 79.1345C131.804 78.7451 132.474 76.5043 132.638 76.3037C132.963 75.9051 135.871 76.5712 136.465 76.7018C138.909 77.2383 143.066 79.0876 144.465 80.1156C144.838 80.3897 142.178 85.813 141.555 85.6277Z" stroke="#292524" stroke-width="0.612512" stroke-linecap="round" stroke-linejoin="round"/>
<path id="Vector_17" d="M27.9968 53.8245C27.9004 54.6432 29.0478 61.7178 29.2055 64.0203C29.5659 69.2557 30.4132 74.4406 30.4132 79.7016C30.4132 80.2233 30.3147 85.2204 30.4765 85.4179C30.6209 85.5919 33.2165 85.5725 33.5921 85.5725C34.7283 85.5725 36.4046 85.8334 37.3417 85.2632C37.9246 84.909 38.1166 82.9831 38.2947 82.4048C38.7827 80.8251 39.4957 79.3111 39.8811 77.6931C40.1578 76.539 40.5299 74.2809 41.2154 73.4443C41.3598 73.2702 42.2658 75.6886 42.3597 75.9163C42.9814 77.4261 43.8017 78.8451 44.331 80.3973C44.7547 81.6326 44.991 83.0822 45.4754 84.2587C45.6453 84.6737 51.0717 84.0351 51.1973 83.8841C51.3999 83.637 52.3233 79.107 52.7913 77.2955C53.5182 74.4845 54.1312 69.7412 54.9463 65.9405C56.0621 60.7434 58.3606 52.1151 58.2207 51.9477C58.0528 51.7435 53.2007 52.0972 52.9133 52.0477C52.6254 51.9982 49.0387 51.5802 48.7809 51.8931C48.3751 52.3861 48.4098 54.0027 48.3363 54.5963C48.0091 57.2459 47.7376 59.9006 47.4456 62.5528C47.3742 63.198 47.3216 67.1073 47.001 67.4968C46.9398 67.5718 46.6739 66.9001 46.6198 66.8011C46.3569 66.3238 46.0644 65.8823 45.7929 65.4102C44.9496 63.9468 43.8349 62.4875 43.1254 60.9302C42.8661 60.3626 42.1025 58.4459 42.0346 58.425C41.8713 58.3745 40.4824 58.4582 39.6295 58.4582C39.4748 58.4582 38.7985 58.3857 38.676 58.5352C38.4238 58.8415 38.3529 60.5285 38.2947 60.9302C37.3417 64.0203 35.616 67.484 35.3087 67.1099C34.7932 66.4831 34.9274 64.2403 34.9274 63.4787C34.9274 60.7571 34.7054 58.0718 34.4828 55.3686C34.4471 54.9337 34.6324 53.0793 34.3557 52.7419C34.0673 52.3938 32.7545 52.6546 32.3845 52.7419C30.9389 53.0941 28.1025 52.9063 27.9968 53.8245Z" stroke="#292524" stroke-width="0.612512" stroke-linecap="round" stroke-linejoin="round"/>
<path id="Vector_18" d="M62.4287 56.3895C63.8916 54.2043 66.0165 51.2142 72.2177 51.7558C74.5039 51.9554 75.2507 54.9444 75.6289 56.4604C75.6845 56.6814 75.7315 56.8713 75.7749 57.0168C76.0918 58.081 76.2052 59.1325 76.322 60.2125C76.3715 60.673 76.4221 61.139 76.4889 61.6126C77.7548 70.6013 74.2349 86.2754 63.4726 83.7631C56.4532 82.1246 58.0411 71.8972 58.9277 66.1881L58.9481 66.059C58.9859 65.814 59.0227 65.5654 59.0599 65.3148C59.2809 63.8284 59.5137 62.2629 60.0619 60.9113C60.6596 59.4398 61.5631 57.6819 62.4287 56.3895ZM68.3451 58.6517C69.1066 56.8315 70.7757 56.4099 71.4061 57.0117C72.2294 57.7987 71.89 59.8757 71.669 61.2268C71.6128 61.5698 71.5643 61.8663 71.5444 62.0827L71.499 62.6013C71.255 65.3816 70.9901 68.3998 70.2934 71.052C70.2709 71.1367 70.2418 71.2587 70.2061 71.4082C69.8993 72.6869 69.1072 75.9883 67.997 75.5733C66.5765 75.0455 66.1349 72.4745 65.9782 71.052C65.5163 66.9119 66.7985 62.3446 68.3451 58.6517Z" stroke="#292524" stroke-width="0.612512" stroke-linecap="round" stroke-linejoin="round"/>
<path id="Vector_19" d="M78.1279 81.6259C77.9288 82.5968 77.5756 84.3159 78.0712 84.5828C77.9038 84.5828 82.5216 85.7359 82.7089 84.7334C83.078 82.8014 83.6624 78.8911 84.1152 75.8591C84.4648 73.5204 84.7359 71.7048 84.7701 71.7237C84.8635 71.7757 85.478 73.235 86.2023 74.9547C86.9715 76.781 87.8643 78.9008 88.3874 79.9405C88.6268 80.4162 88.8672 80.9394 89.1153 81.4774C89.8192 83.0061 90.5807 84.6589 91.5199 85.7119C91.6526 85.8584 92.2386 85.5139 92.5403 85.3362C92.6173 85.2908 92.6761 85.2561 92.7036 85.2438C93.5591 84.8605 94.2931 84.3271 95.0414 83.783C95.3032 83.5906 95.5677 83.4018 95.8346 83.2164C96.1796 82.9796 96.6625 82.778 97.1596 82.5702C97.8824 82.2681 98.6358 81.9536 99.0406 81.4999C99.0722 81.4636 98.6542 80.995 98.3959 80.7051C98.3306 80.6336 98.2668 80.5608 98.2045 80.4867C98.121 80.3737 98.0385 80.26 97.9569 80.1457C97.6175 79.673 97.2995 79.23 96.8131 78.8487C94.4957 77.0306 88.6651 70.3082 88.8815 69.8239C89.5849 68.2492 92.9068 69.4997 95.8346 68.4799C100.084 66.9997 103.14 60.9302 101.268 55.6861L101.238 55.6023C100.963 54.8336 100.655 53.9741 100.084 53.4254C97.5144 50.96 93.7827 50.1484 90.6767 50.4384C88.8514 50.6088 78.2172 52.9976 77.8803 54.1277C77.6966 54.7448 77.9742 55.414 78.2289 56.0286C78.3382 56.2914 78.4428 56.5446 78.5056 56.7789C79.6627 61.091 79.4535 65.6297 79.3417 70.0377C79.2437 73.795 78.8011 77.4175 78.2274 81.113C78.2095 81.2304 78.1728 81.4095 78.1279 81.6259ZM85.2054 57.3306C85.4847 57.2189 85.7848 57.0994 86.0921 56.9728C87.0374 56.5849 91.7185 55.1174 92.7776 56.6278C93.6668 57.8911 92.1723 59.2039 91.7614 59.3234C91.3699 59.4362 90.9835 59.5382 90.6022 59.6388C89.297 59.9838 88.0592 60.3105 86.9419 60.9935C86.3539 61.3538 85.0528 61.9015 84.2836 61.6147C83.7441 61.4125 83.5695 58.5669 83.5695 58.1172C83.5695 57.983 84.2749 57.7017 85.2054 57.3306Z" stroke="#292524" stroke-width="0.612512" stroke-linecap="round" stroke-linejoin="round"/>
<path id="Vector_20" d="M104.029 51.7981C103.486 51.5669 104.253 55.9551 104.313 56.7176C104.62 60.4116 104.78 64.1888 104.806 67.8944C104.838 72.6343 101.555 85.1668 101.848 85.4506C102.107 85.7002 103.525 85.6333 103.8 85.5925C105.291 85.3679 109.037 85.1749 110.027 83.5671C110.21 83.2716 110.041 81.7714 110.055 81.3804C110.125 79.3331 110.273 77.198 110.173 75.1502C110.144 74.5336 110.112 73.9256 110.106 73.3126C110.106 73.3014 110.015 72.4868 110.015 72.4868C110.192 72.4597 121.813 84.3123 124.139 82.3758C124.785 81.8383 127.852 75.1022 127.764 75.0317C126.503 74.0242 125.43 73.7092 123.997 73.1626C121.114 72.0605 119.103 70.8815 116.493 69.0817C115.707 68.5391 114.616 67.994 114.123 67.0818C113.663 66.233 115.726 63.9922 116.015 63.5237C116.566 62.6299 124.784 52.4066 124.112 51.546C123.595 50.8835 119.607 48.6008 118.948 48.8213C117.755 49.2225 117.158 50.9233 115.274 53.1395C114.291 54.2962 113.294 55.6667 112.24 56.7049C111.635 57.297 110.849 57.5001 110.45 58.1484C110.432 58.178 110.438 56.3307 110.43 56.1363C110.414 55.6876 110.233 51.0009 110.121 50.8926C109.892 50.6721 106.569 51.5659 105.891 51.5266C105.484 51.5041 103.717 51.6215 103.966 51.7318" stroke="#292524" stroke-width="0.612512" stroke-linecap="round" stroke-linejoin="round"/>
</g>
</svg>
